<svg id="Capa_1" enable-background="new 0 0 512 512" height="512" viewBox="0 0 512 512" width="512" xmlns="http://www.w3.org/2000/svg"><g><g><path clip-rule="evenodd" d="m306.941 199.389-13.495 58.61 13.495 54.61c31.242 0 56.56-25.333 56.56-56.596s-25.318-56.624-56.56-56.624z" fill="#fee45a" fill-rule="evenodd"/></g><g><path clip-rule="evenodd" d="m7.501 215.445v81.106c0 7.631 6.209 13.844 13.835 13.844h33.057l25.119-54.383-25.147-54.411h-33.029c-7.626 0-13.835 6.242-13.835 13.844z" fill="#acacc0" fill-rule="evenodd"/></g><g><path clip-rule="evenodd" d="m54.393 201.601v108.794c0 9.617 7.853 17.504 17.464 17.504h32.802l23.248-71.886-23.248-71.886h-32.802c-9.611-.001-17.464 7.857-17.464 17.474z" fill="#fee45a" fill-rule="evenodd"/></g><g><path clip-rule="evenodd" d="m104.659 256.013v71.886c0 10.071 3.317 16.908 12.503 22.184l138.833 79.688 25.487-173.759-25.488-173.786-138.833 79.716c-9.186 5.277-12.503 12.085-12.503 22.184v71.887z" fill="#ebeaf3" fill-rule="evenodd"/></g><g><path clip-rule="evenodd" d="m255.994 82.226v347.546 8.426c0 5.759 5.16 8.284 10.461 10.468l30.023 12.426c5.302 2.184 10.461-4.709 10.461-10.468v-138.016-113.22-137.985c0-5.759-5.16-12.681-10.461-10.496l-30.023 12.426c-5.302 2.213-10.461 4.709-10.461 10.468z" fill="#fe636e" fill-rule="evenodd"/></g><g><path clip-rule="evenodd" d="m306.941 278.651v33.957c31.242 0 56.56-25.333 56.56-56.596 0-5.929-.907-11.631-2.58-16.993-7.202 22.98-28.663 39.632-53.98 39.632z" fill="#fac600" fill-rule="evenodd"/></g><g><path clip-rule="evenodd" d="m54.393 310.396c0 9.617 7.853 17.504 17.464 17.504h32.802v-27.121h-32.802c-4.224 0-8.137-1.504-11.17-4.057-3.856-3.206-6.294-8.028-6.294-13.418z" fill="#fac600" fill-rule="evenodd"/></g><g><path clip-rule="evenodd" d="m117.161 350.084 138.833 79.688v-40.709-8.426-298.411l-33.397 19.177v222.269c0 22.78 2.552 39.234-17.719 27.603l-87.717-50.355c-1.106-.652-2.155-1.305-3.119-2.014-6.833-4.993-9.384-11.319-9.384-20.142v49.135c.001 10.071 3.318 16.908 12.503 22.185z" fill="#d8d2db" fill-rule="evenodd"/></g><g><path clip-rule="evenodd" d="m7.501 296.552c0 7.631 6.209 13.844 13.835 13.844h33.057v-27.092h-33.057c-7.626 0-13.835-6.241-13.835-13.844z" fill="#838397" fill-rule="evenodd"/></g><g><path clip-rule="evenodd" d="m255.994 429.771v8.426c0 5.759 5.16 8.284 10.461 10.468l30.023 12.426c5.302 2.184 10.461-4.709 10.461-10.468v-49.135c0 5.759-5.16 12.652-10.461 10.468l-30.023-12.426c-1.985-.823-3.941-1.674-5.613-2.752-2.835-1.787-4.848-4.113-4.848-7.716z" fill="#fb2a39" fill-rule="evenodd"/></g><g>
    <path fill="#fff" d="m465.567 143.648c-2.928-2.929-7.677-2.933-10.609-.004-2.93 2.928-2.932 7.676-.004 10.607 56.069 56.105 56.069 147.392 0 203.496-2.928 2.93-2.926 7.679.004 10.607 1.465 1.463 3.383 2.195 5.303 2.195s3.841-.733 5.306-2.199c61.911-61.951 61.911-162.752 0-224.702z"/>
    <path fill="#fff" d="m435.12 174.089c-2.928-2.932-7.676-2.934-10.608-.008-2.931 2.927-2.935 7.676-.007 10.607 39.282 39.334 39.283 103.312.001 142.619-2.928 2.93-2.926 7.679.004 10.607 1.465 1.463 3.383 2.195 5.303 2.195s3.841-.733 5.306-2.199c45.121-45.151 45.122-118.64.001-163.821z"/>
    <path fill="#fff" d="m404.667 204.553c-2.931-2.929-7.68-2.927-10.609.002-2.928 2.929-2.927 7.678.002 10.607 10.91 10.904 16.917 25.407 16.917 40.838 0 15.43-6.008 29.933-16.917 40.838-2.929 2.928-2.93 7.677-.002 10.607 1.465 1.465 3.385 2.198 5.305 2.198 1.919 0 3.838-.732 5.303-2.196 13.744-13.738 21.313-32.008 21.313-51.446s-7.568-37.711-21.312-51.448z"/><path d="m314.442 192.343v-130.94c0-6.241-3.355-12.681-8.349-16.023-3.846-2.575-8.394-3.087-12.482-1.403l-30.045 12.434c-4.892 2.042-15.072 6.291-15.072 17.39l.001 4.082-135.069 77.555c-8.857 5.088-13.926 11.928-15.617 21.188h-25.952c-11.154 0-20.622 7.357-23.813 17.475h-26.708c-11.765 0-21.336 9.575-21.336 21.344v81.106c0 11.769 9.571 21.344 21.336 21.344h26.705c3.189 10.134 12.659 17.503 23.816 17.503h25.951c1.691 9.259 6.762 16.101 15.623 21.191l26.678 15.29c1.176.674 2.458.995 3.724.995 2.6 0 5.129-1.354 6.515-3.772 2.06-3.594.817-8.177-2.777-10.237l-26.671-15.287c-6.452-3.707-8.739-7.81-8.739-15.682v-143.77c0-7.871 2.286-11.975 8.737-15.68l127.6-73.267.025 160.834c0 4.142 3.359 7.5 7.502 7.499 4.143 0 7.501-3.359 7.5-7.501l-.029-182.211c0-1.105 4.402-2.943 5.828-3.538l28.901-11.961c.584.726 1.215 2.049 1.215 3.102v137.986 113.22 138.014c0 1.118-.643 2.384-1.206 3.077l-28.92-11.969c-1.439-.593-5.817-2.397-5.817-3.532l.027-147.546c.001-4.142-3.356-7.501-7.499-7.502h-.001c-4.142 0-7.5 3.357-7.501 7.499l-.024 126.168-71.92-41.295c-3.592-2.064-8.178-.823-10.24 2.769-2.063 3.592-.823 8.176 2.769 10.239l79.388 45.583-.001 4.083c0 11.18 10.202 15.383 15.093 17.398l30.035 12.431c1.583.652 3.237.975 4.892.975 2.615 0 5.235-.805 7.593-2.383 4.985-3.337 8.335-9.765 8.335-15.995v-130.968c31.799-3.73 56.559-30.839 56.559-63.642-.001-32.817-24.761-59.939-56.56-63.67zm-299.44 104.209v-81.106c0-3.498 2.841-6.344 6.334-6.344h25.556v93.794h-25.556c-3.493 0-6.334-2.846-6.334-6.344zm46.892 13.844v-108.795c0-5.5 4.469-9.975 9.963-9.975h25.301v128.772h-25.301c-5.493.001-9.963-4.487-9.963-10.002zm252.548-5.86v-97.073c23.504 3.626 41.557 24.016 41.557 48.551 0 24.519-18.053 44.898-41.557 48.522z"/></g></g></svg>